<svg fill="#fff" enable-background="new 0 0 512 512" version="1.1" viewBox="0 0 512 512" xml:space="preserve" xmlns="http://www.w3.org/2000/svg">
	<path d="m441.24 137.66l-134.69-134.69c-1.898-1.898-4.471-2.964-7.156-2.964h-189.79c-23.049 0-41.8 18.751-41.8 41.8v428.4c0 23.049 18.751 41.8 41.8 41.8h292.8c23.049 0 41.8-18.751 41.8-41.8v-325.39c0-2.683-1.066-5.258-2.963-7.155zm-131.73-103.11l100.14 100.14h-78.582c-11.889 0-21.56-9.672-21.56-21.562v-78.579zm114.45 435.65c0 11.889-9.672 21.562-21.562 21.562h-292.8c-11.889 0-21.562-9.673-21.562-21.562v-428.4c0-11.889 9.673-21.562 21.562-21.562h179.67v92.892c0 23.049 18.75 41.8 41.799 41.8h92.893v315.27z"/>
	<path d="m336.95 257.01h-161.9c-5.588 0-10.119 4.531-10.119 10.119s4.531 10.119 10.119 10.119h161.9c5.59 0 10.119-4.531 10.119-10.119s-4.529-10.119-10.119-10.119z"/>
	<path d="m336.95 302.21h-161.9c-5.588 0-10.119 4.531-10.119 10.119s4.531 10.119 10.119 10.119h161.9c5.59 0 10.119-4.531 10.119-10.119s-4.529-10.119-10.119-10.119z"/>
	<path d="m336.95 347.4h-161.9c-5.588 0-10.119 4.531-10.119 10.119s4.531 10.119 10.119 10.119h161.9c5.59 0 10.119-4.531 10.119-10.119s-4.529-10.119-10.119-10.119z"/>
	<path d="m284.33 392.6h-109.28c-5.588 0-10.119 4.531-10.119 10.119s4.531 10.119 10.119 10.119h109.28c5.59 0 10.119-4.531 10.119-10.119s-4.529-10.119-10.119-10.119z"/>
</svg>