<svg fill="#fff" enable-background="new 0 0 60 60" version="1.1" viewBox="0 0 60 60" xml:space="preserve" xmlns="http://www.w3.org/2000/svg">
	<path d="m59 55.5v-39h-12v39h-3v-31h-12v31h-3v-23h-12v23h-3v-14h-12v14h-1c-0.552 0-1 0.447-1 1s0.448 1 1 1h58c0.552 0 1-0.447 1-1s-0.448-1-1-1zm-55 0v-12h8v12h-8zm15 0v-21h8v21h-8zm15 0v-29h8v29h-8zm15 0v-37h8v37h-8z"/>
	<path d="m8.03 27.83c0.169 0 0.342-0.043 0.499-0.134l36.269-20.94-2.27 4.99c-0.229 0.503-7e-3 1.096 0.496 1.324 0.134 0.062 0.275 0.09 0.414 0.09 0.38 0 0.743-0.218 0.911-0.586l3.562-7.83c0.011-0.025 9e-3 -0.052 0.018-0.078 0.019-0.053 0.034-0.104 0.044-0.16 5e-3 -0.028 0.021-0.051 0.023-0.08 1e-3 -0.012-4e-3 -0.022-3e-3 -0.034 2e-3 -0.038-2e-3 -0.073-4e-3 -0.111-3e-3 -0.055-0.012-0.107-0.024-0.162-8e-3 -0.038-0.01-0.077-0.023-0.114-0.012-0.036-0.033-0.066-0.049-0.101-0.013-0.023-0.013-0.05-0.027-0.074s-0.038-0.038-0.054-0.061c-0.021-0.031-0.037-0.064-0.062-0.092-0.026-0.03-0.059-0.051-0.089-0.078-0.041-0.037-0.082-0.071-0.128-0.101-0.031-0.02-0.059-0.042-0.093-0.059-0.011-5e-3 -0.017-0.015-0.028-0.02-0.025-0.011-0.052-9e-3 -0.077-0.018-0.055-0.02-0.109-0.034-0.166-0.044-0.026-5e-3 -0.047-0.02-0.074-0.022l-8.562-0.83c-0.555-0.056-1.039 0.35-1.092 0.898-0.054 0.55 0.349 1.039 0.898 1.092l5.456 0.529-36.266 20.94c-0.479 0.276-0.642 0.888-0.366 1.366 0.185 0.321 0.521 0.5 0.867 0.5z"/>
</svg>